
<svg width="152px" height="9px" viewBox="0 0 152 9" version="1.1" xmlns="http://www.w3.org/2000/svg" xmlns:xlink="http://www.w3.org/1999/xlink">
    <g id="Page-1" stroke="none" stroke-width="1" fill="none" fill-rule="evenodd">
        <g id="Apple-TV" transform="translate(-885.000000, -536.000000)" fill="#231F20">
            <g id="Group-18" transform="translate(885.000000, 536.000000)">
                <path d="M4.6387,1.6357 L3.7158,2.1826 C3.5433,1.8831 3.3789,1.6878 3.2227,1.5966 C3.0599,1.4925 2.8499,1.4404 2.5928,1.4404 C2.277,1.4404 2.015,1.5299 1.8066,1.7089 C1.5983,1.8847 1.4941,2.1061 1.4941,2.373 C1.4941,2.7408 1.7676,3.0371 2.3145,3.2617 L3.0664,3.5693 C3.6784,3.8167 4.126,4.1186 4.4092,4.4751 C4.6924,4.8315 4.834,5.2685 4.834,5.7861 C4.834,6.4794 4.6029,7.0524 4.1406,7.5048 C3.6751,7.9606 3.0973,8.1884 2.4072,8.1884 C1.7529,8.1884 1.2126,7.9947 0.7861,7.6074 C0.3662,7.22 0.1042,6.6748 0,5.9716 L1.1523,5.7177 C1.2044,6.1604 1.2956,6.4664 1.4258,6.6357 C1.6602,6.9612 2.002,7.124 2.4512,7.124 C2.806,7.124 3.1006,7.0052 3.335,6.7675 C3.5693,6.5299 3.6865,6.2288 3.6865,5.8642 C3.6865,5.7177 3.6662,5.5835 3.6255,5.4614 C3.5848,5.3393 3.5213,5.227 3.4351,5.1245 C3.3488,5.0219 3.2373,4.9259 3.1006,4.8364 C2.9639,4.7469 2.8011,4.6614 2.6123,4.58 L1.8848,4.2773 C0.8529,3.8411 0.3369,3.2031 0.3369,2.3632 C0.3369,1.7968 0.5534,1.3232 0.9863,0.9423 C1.4193,0.5582 1.958,0.3662 2.6025,0.3662 C3.4717,0.3662 4.1504,0.7893 4.6387,1.6357 Z" id="Fill-1"></path>
                <polygon id="Fill-2" points="10.3081 1.582 10.3081 8.0517 9.1704 8.0517 9.1704 1.582 7.437 1.582 7.437 0.5127 12.0366 0.5127 12.0366 1.582"></polygon>
                <path d="M16.0696,0.5127 L16.0696,5.0537 C16.0696,5.7015 16.1754,6.1751 16.387,6.4746 C16.7028,6.9075 17.1471,7.124 17.72,7.124 C18.2962,7.124 18.7421,6.9075 19.0579,6.4746 C19.2695,6.1849 19.3753,5.7112 19.3753,5.0537 L19.3753,0.5127 L20.513,0.5127 L20.513,5.3662 C20.513,6.1604 20.2656,6.8147 19.7708,7.3291 C19.2141,7.902 18.5305,8.1884 17.72,8.1884 C16.9095,8.1884 16.2275,7.902 15.6741,7.3291 C15.1793,6.8147 14.9319,6.1604 14.9319,5.3662 L14.9319,0.5127 L16.0696,0.5127 Z" id="Fill-3"></path>
                <path d="M24.1993,8.0517 L24.1993,0.5127 L25.7814,0.5127 C26.5398,0.5127 27.1388,0.5875 27.5782,0.7373 C28.0502,0.8837 28.4783,1.1328 28.8624,1.4843 C29.6404,2.194 30.0294,3.1266 30.0294,4.2822 C30.0294,5.441 29.6241,6.3785 28.8136,7.0947 C28.4067,7.4528 27.9803,7.7018 27.5343,7.8418 C27.1176,7.9817 26.5268,8.0517 25.7618,8.0517 L24.1993,8.0517 Z M25.337,6.9824 L25.8497,6.9824 C26.3608,6.9824 26.7856,6.9287 27.1241,6.8212 C27.4627,6.7073 27.7687,6.5267 28.0421,6.2793 C28.602,5.7682 28.882,5.1025 28.882,4.2822 C28.882,3.4554 28.6053,2.7848 28.0519,2.2705 C27.5538,1.8115 26.8198,1.582 25.8497,1.582 L25.337,1.582 L25.337,6.9824 Z" id="Fill-4"></path>
                <polygon id="Fill-5" points="33.3398 8.0517 34.4775 8.0517 34.4775 0.5126 33.3398 0.5126"></polygon>
                <path d="M37.7928,4.248 C37.7928,3.1868 38.1818,2.2753 38.9598,1.5136 C39.7345,0.7519 40.6655,0.3711 41.7527,0.3711 C42.8269,0.3711 43.7482,0.7552 44.5164,1.5234 C45.2879,2.2916 45.6736,3.2145 45.6736,4.2919 C45.6736,5.3759 45.2863,6.2955 44.5115,7.0507 C43.7335,7.8092 42.7944,8.1884 41.6941,8.1884 C40.7208,8.1884 39.8468,7.8515 39.0721,7.1777 C38.2192,6.4322 37.7928,5.4557 37.7928,4.248 Z M38.9402,4.2627 C38.9402,5.096 39.2202,5.7812 39.7801,6.3183 C40.3367,6.8554 40.9796,7.124 41.7088,7.124 C42.4998,7.124 43.1671,6.8505 43.7107,6.3037 C44.2543,5.7503 44.5262,5.0765 44.5262,4.2822 C44.5262,3.4781 44.2576,2.8043 43.7205,2.2607 C43.1866,1.7138 42.5258,1.4404 41.7381,1.4404 C40.9536,1.4404 40.2911,1.7138 39.7508,2.2607 C39.2104,2.8011 38.9402,3.4684 38.9402,4.2627 Z" id="Fill-6"></path>
                <polygon id="Fill-7" points="55.0957 3.4619 58.3476 3.4619 58.3476 0.5127 59.4853 0.5127 59.4853 8.0517 58.3476 8.0517 58.3476 4.5312 55.0957 4.5312 55.0957 8.0517 53.958 8.0517 53.958 0.5127 55.0957 0.5127"></polygon>
                <path d="M62.7957,4.248 C62.7957,3.1868 63.1847,2.2753 63.9627,1.5136 C64.7374,0.7519 65.6684,0.3711 66.7557,0.3711 C67.8299,0.3711 68.7511,0.7552 69.5193,1.5234 C70.2908,2.2916 70.6766,3.2145 70.6766,4.2919 C70.6766,5.3759 70.2892,6.2955 69.5145,7.0507 C68.7365,7.8092 67.7973,8.1884 66.6971,8.1884 C65.7238,8.1884 64.8497,7.8515 64.075,7.1777 C63.2221,6.4322 62.7957,5.4557 62.7957,4.248 Z M63.9432,4.2627 C63.9432,5.096 64.2231,5.7812 64.783,6.3183 C65.3397,6.8554 65.9826,7.124 66.7117,7.124 C67.5027,7.124 68.1701,6.8505 68.7137,6.3037 C69.2573,5.7503 69.5291,5.0765 69.5291,4.2822 C69.5291,3.4781 69.2606,2.8043 68.7234,2.2607 C68.1896,1.7138 67.5288,1.4404 66.741,1.4404 C65.9565,1.4404 65.2941,1.7138 64.7537,2.2607 C64.2134,2.8011 63.9432,3.4684 63.9432,4.2627 Z" id="Fill-8"></path>
                <polygon id="Fill-9" points="73.987 8.0517 73.987 0 79.485 5.7519 79.485 0.5127 80.6227 0.5127 80.6227 8.5107 75.1246 2.7734 75.1246 8.0517"></polygon>
                <path d="M88.2609,4.1259 L91.3762,4.1259 L91.3762,4.375 C91.3762,4.9414 91.3094,5.4427 91.176,5.8789 C91.0458,6.2825 90.826,6.6601 90.5168,7.0117 C89.8169,7.7994 88.9266,8.1933 87.8459,8.1933 C86.7912,8.1933 85.8879,7.8125 85.1359,7.0507 C84.384,6.2858 84.008,5.3678 84.008,4.2968 C84.008,3.2031 84.3905,2.2753 85.1555,1.5136 C85.9204,0.7487 86.8514,0.3662 87.9484,0.3662 C88.5376,0.3662 89.0878,0.4866 89.5988,0.7275 C90.0871,0.9684 90.5672,1.359 91.0393,1.8994 L90.2287,2.6757 C89.6102,1.8522 88.8566,1.4404 87.968,1.4404 C87.1704,1.4404 86.5015,1.7155 85.9611,2.2656 C85.4208,2.8059 85.1506,3.483 85.1506,4.2968 C85.1506,5.1367 85.4517,5.8284 86.0539,6.372 C86.6171,6.8766 87.2274,7.1289 87.885,7.1289 C88.4449,7.1289 88.9478,6.9401 89.3937,6.5625 C89.8397,6.1816 90.0887,5.7259 90.1408,5.1953 L88.2609,5.1953 L88.2609,4.1259 Z" id="Fill-10"></path>
                <path d="M96.981,0.5127 L96.981,5.3906 C96.981,5.9733 96.9403,6.4078 96.8589,6.6943 C96.7775,7.0198 96.6392,7.2949 96.4439,7.5195 C96.063,7.9655 95.5585,8.1884 94.9302,8.1884 C94.4549,8.1884 94.0106,8.0647 93.5972,7.8173 L94.1538,6.8457 C94.4305,7.0312 94.6893,7.124 94.9302,7.124 C95.2687,7.124 95.5031,6.9954 95.6333,6.7382 C95.77,6.4811 95.8384,6.0319 95.8384,5.3906 L95.8384,0.5127 L96.981,0.5127 Z" id="Fill-11"></path>
                <polygon id="Fill-12" points="100.667 8.0517 101.8047 8.0517 101.8047 0.5126 100.667 0.5126"></polygon>
                <polygon id="Fill-13" points="109.655 1.582 106.633 1.582 106.633 3.3935 109.568 3.3935 109.568 4.4628 106.633 4.4628 106.633 6.9824 109.655 6.9824 109.655 8.0517 105.495 8.0517 105.495 0.5127 109.655 0.5127"></polygon>
                <polygon id="Fill-14" points="119.512 4.7949 117.051 0.5127 118.36 0.5127 120.084 3.5253 121.812 0.5127 123.121 0.5127 120.65 4.7949 120.65 8.0517 119.512 8.0517"></polygon>
                <path d="M129.609,6.2207 L126.382,6.2207 L125.542,8.0517 L124.316,8.0517 L128.047,0.039 L131.646,8.0517 L130.4,8.0517 L129.609,6.2207 Z M129.146,5.1513 L128.027,2.5878 L126.856,5.1513 L129.146,5.1513 Z" id="Fill-15"></path>
                <polygon id="Fill-16" points="134.467 8.0517 134.467 0 139.965 5.7519 139.965 0.5127 141.103 0.5127 141.103 8.5107 135.605 2.7734 135.605 8.0517"></polygon>
                <path d="M148.75,4.1259 L151.865,4.1259 L151.865,4.375 C151.865,4.9414 151.798,5.4427 151.665,5.8789 C151.535,6.2825 151.315,6.6601 151.006,7.0117 C150.306,7.7994 149.416,8.1933 148.335,8.1933 C147.28,8.1933 146.377,7.8125 145.625,7.0507 C144.873,6.2858 144.497,5.3678 144.497,4.2968 C144.497,3.2031 144.879,2.2753 145.644,1.5136 C146.409,0.7487 147.34,0.3662 148.437,0.3662 C149.027,0.3662 149.577,0.4866 150.088,0.7275 C150.576,0.9684 151.056,1.359 151.528,1.8994 L150.718,2.6757 C150.099,1.8522 149.346,1.4404 148.457,1.4404 C147.659,1.4404 146.99,1.7155 146.45,2.2656 C145.91,2.8059 145.64,3.483 145.64,4.2968 C145.64,5.1367 145.941,5.8284 146.543,6.372 C147.106,6.8766 147.716,7.1289 148.374,7.1289 C148.934,7.1289 149.437,6.9401 149.883,6.5625 C150.329,6.1816 150.578,5.7259 150.63,5.1953 L148.75,5.1953 L148.75,4.1259 Z" id="Fill-17"></path>
            </g>
        </g>
    </g>
</svg>